<?xml version="1.0" encoding="UTF-8"?>
<svg id="Layer_1" data-name="Layer 1" xmlns="http://www.w3.org/2000/svg" viewBox="0 0 52.66 52.66">
  <defs>
    <style>
      .cls-1 {
        fill: #a22e04;
      }

      .cls-2 {
        fill: #a7543a;
      }

      .cls-3 {
        fill: none;
        stroke: #b09da2;
        stroke-miterlimit: 10;
        stroke-width: 2px;
      }

      .cls-4 {
        fill: #ab7163;
      }
    </style>
  </defs>
  <circle class="cls-3" cx="26.33" cy="26.33" r="25.33"/>
  <path class="cls-1" d="M9.82,20.1c6.71-3.72,3.08-1.13,9.8,1.21l-1.21-10.94c4.67,2.31,5.9-2.18,7.37-6.06,2.47.71,2.12,5.5,4.82,6.67,1.31.56,3.42-.87,4.97-.59l-2.44,10.92c3.02.7,3.56-2.53,4.9-3.64,3.04.82,6.09,1.54,9.15,2.16l-.57,2.71c-.32,1.91.48,3.73-.63,6.04-1.94,4.04-10.41,4.47-7.97,12.2-10.16-4.5-13.21-2.4-9.8,8.5-5.3.74-.36-8.1-3.61-10.42-1.95-1.39-7.6,1.23-9.86,1.92,3.49-7.12-4.85-7.21-7.36-12.15l-1.09-9.22,3.54.71Z"/>
  <path class="cls-4" d="M38.01,17.67c3.99-3.3,3.2,3.66,9.8,0,.97,2.1-1.06,3.92-1.22,4.86,1.02-4.32-5.77-1.05-8.58-4.86Z"/>
  <path class="cls-2" d="M9.82,20.1c-.47.26-2.19-.33-2.44,0-.47.62,1.82,6.61,0,8.5-1.79-3.52-1.34-7.26-2.44-10.94l4.89,2.43Z"/>
</svg>