<?xml version="1.0" encoding="UTF-8"?>
<svg id="Layer_1" xmlns="http://www.w3.org/2000/svg" viewBox="0 0 263.51 325.01">
  <defs>
    <style>
      .cls-1 {
        fill: #59ae60;
        stroke: #59ae60;
      }

      .cls-1, .cls-2, .cls-3, .cls-4, .cls-5, .cls-6 {
        opacity: .95;
        stroke-miterlimit: 10;
      }

      .cls-2 {
        fill: #888;
        stroke: #888;
      }

      .cls-3 {
        fill: #cb3627;
        stroke: #cb3627;
      }

      .cls-4 {
        fill: #4393c3;
        stroke: #4393c3;
      }

      .cls-5 {
        fill: #9970ab;
        stroke: #9970ab;
      }

      .cls-6 {
        fill: #eb7124;
        stroke: #eb7124;
      }
    </style>
  </defs>
  <path class="cls-2" d="M250.39,162.84c-22.74,24.97-61.41,26.78-86.38,4.04-24.97-22.74-26.78-61.41-4.04-86.38,22.74-24.97,97.52-16.27,97.52-16.27,0,0,15.65,73.64-7.09,98.61Z"/>
  <path class="cls-3" d="M190.54,78.3c0,33.77-27.38,61.15-61.15,61.15s-61.15-27.38-61.15-61.15S129.39.62,129.39.62c0,0,61.15,43.91,61.15,77.69Z"/>
  <path class="cls-5" d="M102.98,79.59c23.14,24.6,21.95,63.3-2.65,86.44-24.6,23.14-63.3,21.95-86.44-2.65-23.14-24.6-8.68-98.48-8.68-98.48,0,0,74.63-9.91,97.77,14.69Z"/>
  <path class="cls-1" d="M15.89,162.01c24.12-23.64,62.84-23.25,86.47.87s23.25,62.84-.87,86.47-98.28,10.71-98.28,10.71c0,0-11.44-74.41,12.68-98.05Z"/>
  <path class="cls-6" d="M161.84,249.06c-23.98-23.78-24.14-62.5-.35-86.48,23.78-23.98,62.5-24.14,86.48-.35,23.98,23.78,12.1,98.12,12.1,98.12,0,0-74.24,12.49-98.22-11.29Z"/>
  <path class="cls-4" d="M68.24,246.71c0-33.77,27.38-61.15,61.15-61.15s61.15,27.38,61.15,61.15-61.15,77.69-61.15,77.69c0,0-61.15-43.91-61.15-77.69Z"/>
</svg>