<?xml version="1.0" encoding="UTF-8"?>
<svg id="Layer_1" data-name="Layer 1" xmlns="http://www.w3.org/2000/svg" viewBox="0 0 46.71 46.71">
  <defs>
    <style>
      .cls-1 {
        fill: #e54234;
      }

      .cls-2 {
        fill: #b1d6aa;
      }

      .cls-3 {
        fill: #d73c36;
      }

      .cls-4 {
        fill: #638e45;
      }

      .cls-5 {
        fill: #d54940;
      }

      .cls-6 {
        fill: #5faf4f;
      }

      .cls-7 {
        fill: #3e7f32;
      }

      .cls-8 {
        fill: #cf332e;
      }

      .cls-9 {
        fill: #c33c37;
      }

      .cls-10 {
        fill: none;
        stroke: #bbdeb9;
        stroke-miterlimit: 10;
        stroke-width: 3px;
      }

      .cls-11 {
        fill: #be2d2a;
      }

      .cls-12 {
        fill: #a3c99d;
      }

      .cls-13 {
        fill: #85b179;
      }

      .cls-14 {
        fill: #4a903c;
      }
    </style>
  </defs>
  <circle class="cls-10" cx="23.35" cy="23.35" r="21.85"/>
  <g>
    <path class="cls-5" d="M18.62,10.63c1.41.88.71,2.34-.98,1.96-.29.24-3.25,2-3.91,1.96.68-5.57,1.79-3.16,4.89-3.91Z"/>
    <path class="cls-11" d="M27.42,10.63c.3.66.66,1.3.98,1.96.66,2.12-.95,1.73-1.96,0-.14-.54.09-1.34,0-1.96.05.01.14-.24.98,0Z"/>
    <path class="cls-8" d="M28.4,12.59c.55,1.14,2.59,2.18-.98,1.96-.01-.11-.77-1.14-.98-1.96l1.47.95.48-.95Z"/>
    <g>
      <path class="cls-1" d="M26.44,10.63c1,.78,1.19,1.5,0,1.96.83.64,1.16,1.29.98,1.96,4.01,2.39,2.43,8.32-1.96,9.78-.24.87-.57.85-.98,0-.4,1.92-1.06,2.25-1.96.98-.18.88-.51.84-.98,0-.83,2.37-2.81,1.1-2.93-.98-.26-.34-.59-.82-.98-.98l-3.91-4.89c-.15-1-.13-2.88,0-3.91.8-1.58,2.24-3.63,3.91-1.96.87.08,1.85-.57,2.93-1.96.15-.05.64-2.03,2.42-1.99,1.5.04,2.62,1.8,3.45,1.99Z"/>
      <path class="cls-6" d="M31.33,24.32c1.12-.54,6.32-1.46,6.84-.97-.35,8.78-6.35,14.79-15.24,14.71-1.44-.01-2.12-.99-2.36-1.03-.4-2.04-.57-3.57,1.96-3.91-.18-1.52.14-2.17.98-1.96.11-.94.44-1.59.98-1.96.5-2.85,4.04-5.12,6.84-4.89Z"/>
      <path class="cls-7" d="M14.71,24.32c3.79.59,5.42,1.9,4.89,3.91,2.12-.45,2.78.2,1.96,1.96,1.66-.21,1.39,1.5.98,2.93-.46,1.12.41,3.42-1.96,3.91-1.62-.24-5.51-.56-6.58-1.25-1.97-1.27-6.73-10.9-5.15-12.43,2.08-.39,3.99.74,5.86.97Z"/>
      <path class="cls-3" d="M27.42,10.63c.92.26,2.74-.49,3.72.17,3.04,2.04,2.64,10.88-1.76,12.54-.03,2.24-2.8,3.55-3.91.98,2.47-2.58,2.27-6.43,1.96-9.78l.98-1.96c-1.31.08-1.7-.94-.98-1.96Z"/>
      <path class="cls-2" d="M31.33,24.32c-1.51.73-4.17,5.07-6.84,4.89-1.2-2.21-1.2-3.84,0-4.89.32-.03.66.04.98,0,1.43-.18,3.22-.93,3.91-.98.12,0,1.26,1.1,1.96.98Z"/>
      <path class="cls-12" d="M18.62,24.32c1.11.07,2.56.99,2.93.98,1.42,1.97.34,4.93-1.96,2.93-1.58-1.41-3.4-2.41-4.89-3.91,1.66.21,2.85-.06,3.91,0Z"/>
      <path class="cls-5" d="M17.64,23.34c-2.91-1.18-3.39-1.34-3.91-4.89,1.88,1.06,3.77,2.56,3.91,4.89Z"/>
      <path class="cls-9" d="M20.58,10.63c-.17,3.38-2.83,6.44-2.93,1.96.37-.31.6-1.45.98-1.96.58-.14,1.43.16,1.96,0Z"/>
      <path class="cls-4" d="M24.49,24.32c-.16,1.57.23,3.38,0,4.89-.17,1.13-.89,1.64-.98,1.96-.61-1.04-.93-2.67-.98-4.89-.63-.29-.62-.62,0-.98.14,0,1.04-.9,1.96-.98Z"/>
      <path class="cls-13" d="M22.53,26.28c.95,1.38.82,4.14-.98,3.91-.64-.66-1.27-1.34-1.96-1.96,2.61.46,2-.62,1.96-2.93.33,0,.65.01.98,0v.98Z"/>
      <path class="cls-14" d="M23.51,31.16c-.25.92-.74,1.37-.98,1.96.11-.89-1.01-2.47-.98-2.93s1.75-2.47.98-3.91c1.58.84.92,3.32.98,4.89Z"/>
    </g>
  </g>
</svg>