<?xml version="1.0" standalone="no"?>
<!DOCTYPE svg PUBLIC "-//W3C//DTD SVG 20010904//EN"
 "http://www.w3.org/TR/2001/REC-SVG-20010904/DTD/svg10.dtd">
<svg version="1.0" xmlns="http://www.w3.org/2000/svg"
 width="300.000000pt" height="75.000000pt" viewBox="0 0 300.000000 75.000000"
 preserveAspectRatio="xMidYMid meet">
<metadata>
Created by potrace 1.10, written by Peter Selinger 2001-2011
</metadata>
<g transform="translate(0.000000,75.000000) scale(0.100000,-0.100000)"
fill="#000000" stroke="none">
<path d="M2475 643 c-76 -15 -108 -43 -49 -43 23 0 24 -3 24 -65 0 -61 -9 -80
-26 -54 -10 17 -78 4 -113 -20 -95 -68 -75 -228 29 -246 29 -5 47 -2 69 11 32
19 33 41 1 24 -23 -12 -60 0 -89 31 -31 34 -30 117 4 153 28 30 69 34 103 10
20 -14 22 -23 22 -124 0 -99 8 -137 25 -110 3 5 16 10 28 10 28 1 62 26 47 35
-6 4 -17 2 -24 -4 -10 -8 -16 -8 -23 1 -14 18 -17 341 -4 367 12 22 5 29 -24
24z"/>
<path d="M914 616 c-15 -12 -17 -18 -8 -33 14 -23 41 -28 59 -13 19 16 19 25
-1 44 -19 20 -25 20 -50 2z"/>
<path d="M2623 619 c-26 -10 -30 -31 -8 -49 30 -25 72 18 44 45 -10 9 -21 10
-36 4z"/>
<path d="M88 604 c-12 -11 2 -24 27 -24 12 0 25 -6 28 -12 5 -14 -9 -202 -21
-278 -6 -40 -10 -45 -35 -48 -15 -2 -27 -9 -27 -17 0 -10 20 -13 83 -11 82 1
115 18 48 24 l-34 3 7 82 c3 45 6 110 6 145 0 34 4 62 10 62 6 0 10 -4 10 -10
0 -5 22 -70 49 -142 65 -176 62 -168 71 -168 10 0 112 201 130 256 28 82 35
66 38 -83 l2 -143 -36 0 c-24 0 -34 -4 -32 -12 6 -18 178 -20 178 -2 0 7 -12
14 -27 16 -27 3 -28 5 -34 78 -4 41 -7 117 -8 168 -1 91 -1 92 23 92 27 0 42
15 26 25 -18 11 -110 -7 -110 -22 0 -8 -15 -45 -34 -81 -19 -37 -49 -98 -67
-136 -29 -64 -33 -68 -45 -51 -8 10 -14 24 -14 31 0 6 -14 44 -31 85 -17 41
-38 95 -46 122 -12 36 -21 47 -37 47 -12 0 -37 3 -56 6 -19 3 -38 2 -42 -2z"/>
<path d="M1704 598 c-10 -15 -43 -103 -51 -133 -2 -11 -8 -29 -13 -40 -17 -42
-59 -151 -64 -168 -3 -10 -15 -17 -30 -17 -27 0 -44 -16 -23 -22 30 -9 141 -2
145 10 2 7 -6 12 -22 12 -37 0 -40 14 -14 80 l23 60 61 0 60 0 20 -57 c10 -32
20 -64 22 -70 2 -9 -8 -13 -27 -13 -19 0 -31 -5 -31 -13 0 -17 162 -16 168 1
2 7 -7 12 -21 12 -30 0 -45 17 -53 59 -4 17 -11 34 -15 37 -5 3 -9 14 -9 25 0
10 -4 27 -9 37 -5 9 -23 60 -39 112 -24 75 -34 96 -50 98 -11 2 -24 -3 -28
-10z m26 -63 c0 -9 9 -40 19 -70 10 -29 16 -56 13 -59 -3 -3 -25 -6 -50 -6
-50 0 -48 -9 -21 98 13 48 39 73 39 37z"/>
<path d="M2768 498 c-31 -33 -34 -43 -15 -51 10 -4 12 -26 9 -92 -5 -97 5
-130 45 -140 33 -8 103 12 103 30 0 18 -5 19 -29 3 -15 -9 -25 -9 -45 0 -25
11 -26 14 -26 108 l0 97 39 -6 c43 -5 67 4 56 23 -4 7 -24 10 -49 8 -39 -3
-41 -2 -39 25 2 35 -14 33 -49 -5z"/>
<path d="M684 476 c-30 -13 -64 -50 -64 -69 0 -18 46 -1 55 21 13 30 42 38 65
17 15 -14 18 -30 17 -103 l-2 -86 -33 -10 c-26 -7 -36 -6 -43 5 -16 25 -5 54
28 69 62 29 25 43 -40 15 -52 -22 -66 -81 -25 -109 29 -20 58 -20 86 0 21 15
25 15 42 -1 14 -12 27 -15 47 -10 54 13 76 52 23 40 -35 -8 -33 -13 -30 106 2
83 1 87 -25 108 -32 24 -57 26 -101 7z"/>
<path d="M918 477 c-40 -11 -52 -37 -18 -37 19 0 20 -7 20 -140 0 -161 -9
-191 -66 -215 -19 -8 -33 -19 -29 -25 9 -15 29 -12 72 11 65 34 68 45 68 221
0 86 3 160 8 164 12 12 8 34 -5 33 -7 -1 -30 -6 -50 -12z"/>
<path d="M1097 472 c-62 -42 -84 -124 -52 -189 19 -38 42 -58 85 -73 29 -10
41 -9 72 4 40 17 82 66 91 106 10 40 -9 101 -41 133 -39 39 -113 48 -155 19z
m111 -33 c34 -36 41 -111 16 -165 -14 -30 -21 -34 -54 -34 -45 0 -65 19 -81
81 -13 49 -3 93 28 125 21 21 69 17 91 -7z"/>
<path d="M1373 474 c-38 -16 -42 -30 -13 -39 18 -6 20 -15 20 -96 0 -87 -1
-90 -26 -99 -42 -16 -19 -27 56 -26 72 1 99 17 45 26 l-30 5 -2 95 c-1 52 -2
100 -3 105 -1 6 -2 18 -1 28 3 20 -3 20 -46 1z"/>
<path d="M1473 478 c-30 -14 -38 -38 -13 -38 10 0 22 -4 25 -10 11 -18 30 -11
42 15 9 22 8 27 -7 35 -22 12 -19 12 -47 -2z"/>
<path d="M1958 483 c-42 -5 -48 -17 -18 -33 18 -9 20 -21 20 -95 0 -91 12
-131 42 -141 25 -8 88 4 88 16 0 16 30 11 36 -5 5 -12 15 -14 43 -9 59 11 79
38 28 39 -21 0 -22 4 -24 105 -1 58 -2 110 -3 115 0 12 -80 7 -94 -5 -5 -5 2
-12 17 -15 31 -8 33 -16 33 -119 l-1 -80 -34 -9 c-24 -6 -42 -5 -58 4 -22 12
-23 17 -23 126 0 62 -3 112 -7 111 -5 -1 -25 -3 -45 -5z"/>
<path d="M2613 474 c-38 -16 -42 -29 -13 -37 19 -5 20 -13 19 -97 -2 -88 -3
-92 -27 -101 -36 -14 -20 -22 48 -23 43 -2 60 2 60 11 0 7 -9 13 -19 13 -27 0
-29 12 -25 132 2 59 1 109 -4 111 -4 2 -22 -2 -39 -9z"/>
</g>
</svg>
